<?xml version="1.0" encoding="UTF-8"?>
<svg xmlns="http://www.w3.org/2000/svg" width="360" height="760" viewBox="0 0 360 760" fill="none">
  <path fill-rule="evenodd" clip-rule="evenodd" d="M360 0H0V760H360V0ZM84.2388 358.97L84.0437 358.775C83.3938 359.425 81.5738 358.905 79.0387 357.345C76.4388 355.785 73.3838 353.25 70.3938 350.26C70.3613 350.26 70.345 350.244 70.3288 350.228C70.3125 350.211 70.2962 350.195 70.2637 350.195H81.8988C83.5238 346.88 83.9137 343.63 83.1988 340.64C82.5488 337.91 80.9888 335.505 78.7138 333.88C76.3737 332.255 73.5137 331.54 70.6537 331.8C67.4688 332.19 64.3487 333.75 61.6838 336.415C58.6937 339.405 57.0037 343.435 57.0687 347.66C57.0687 351.95 58.6937 355.915 61.6838 358.97C64.7387 361.96 68.7038 363.585 72.9938 363.585C77.2188 363.585 81.2487 361.96 84.2388 358.97ZM70.0038 349.87C67.2087 347.01 64.8037 344.085 63.3088 341.615C61.7487 339.08 61.2288 337.26 61.8787 336.61C62.4637 336.025 63.3088 335.96 64.2838 336.35C65.7787 336.935 67.5338 338.56 69.0287 340.705C70.5888 342.915 71.4987 345.255 71.5638 346.945C71.6288 348.375 71.0437 349.35 70.0038 349.87ZM105.508 363H119.418L117.338 358.515V340.9C117.338 336.675 115.583 333.555 112.528 332.32C110.708 331.54 108.628 331.475 106.483 332.125C104.338 332.775 102.193 334.075 100.243 335.895V332.255H86.333L88.413 336.74V358.515L86.333 363H102.323L100.243 358.515V336.285C100.698 335.895 101.413 335.83 102.063 336.09C102.713 336.35 103.623 337.065 104.403 339.015C105.118 340.965 105.508 343.695 105.508 347.14V363ZM124.566 330.63C126.841 332.97 130.611 332.97 132.951 330.63C135.226 328.355 135.226 324.585 132.951 322.245C130.611 319.97 126.841 319.97 124.566 322.245C122.226 324.585 122.226 328.355 124.566 330.63ZM120.731 335.765L122.811 340.25V363.065H122.876C127.621 368.135 130.936 373.205 129.961 374.115C129.376 374.7 127.426 373.66 125.736 372.555C123.266 370.995 120.276 368.46 117.286 365.405L117.156 365.34L108.316 374.245L108.381 374.31C110.721 376.65 114.491 378.86 119.301 378.86C125.281 378.86 128.986 375.48 130.156 374.31C133.081 371.385 134.641 367.55 134.641 363.455V335.765H120.731ZM169.597 347.66C169.597 343.435 167.907 339.405 164.917 336.415C161.927 333.425 157.897 331.735 153.672 331.735C149.382 331.735 145.417 333.425 142.362 336.415C139.372 339.405 137.747 343.435 137.747 347.66C137.747 351.95 139.372 355.915 142.362 358.97C145.417 361.96 149.382 363.65 153.672 363.65C157.897 363.65 161.927 361.96 164.917 358.97C167.907 355.915 169.597 351.95 169.597 347.66ZM162.967 354.16C164.592 356.5 165.242 358.255 164.722 358.775C163.747 359.75 158.222 356.37 151.592 349.74C148.602 346.75 146.002 343.76 144.312 341.225C142.687 338.82 142.037 337.13 142.557 336.61C143.077 336.09 144.832 336.74 147.172 338.365C149.707 340.055 152.762 342.655 155.687 345.645C158.677 348.57 161.277 351.625 162.967 354.16ZM204.309 332.255H187.734L187.799 332.45C191.959 344.02 193.129 351.69 193.454 356.045C193.649 359.295 193.389 361.505 193.129 362.48L182.209 332.255H169.209L180.259 363.065H192.934C192.219 364.885 190.334 366.055 187.279 366.575C184.419 367.095 180.909 367.03 177.529 366.965H174.539L170.249 378.795H170.444C174.149 378.795 176.749 378.665 178.894 378.275C181.364 377.885 183.249 377.17 184.939 376.13C188.254 373.92 190.659 370.15 193.259 363.065L204.309 332.255ZM239.138 358.905C238.553 359.23 237.643 359.49 236.668 358.905C235.823 358.385 235.108 357.345 234.653 355.785C234.068 353.9 233.743 351.365 233.743 348.18V335.375C236.018 335.96 236.798 336.545 236.798 336.545L236.928 336.675L239.463 332.255H233.743V320.49L221.913 326.015V332.255H218.858V334.01H218.988H221.913V354.42C221.913 360.335 225.358 363.585 229.843 363.585C233.938 363.585 237.318 361.115 239.333 359.1L239.138 358.905ZM259.88 363H273.855L271.71 358.515V341.42C271.71 337.195 269.955 334.075 266.9 332.84C265.08 332.06 263 331.995 260.855 332.645C258.71 333.295 256.565 334.595 254.615 336.48V320.49H240.705L242.785 325.04V358.515L240.705 363H256.695L254.615 358.515V336.87C255.07 336.415 255.785 336.35 256.435 336.61C257.085 336.87 257.995 337.585 258.775 339.535C259.49 341.485 259.88 344.215 259.88 347.66V363ZM302.852 358.97L302.657 358.775C302.007 359.425 300.187 358.905 297.652 357.345C295.052 355.785 291.997 353.25 289.007 350.26C288.975 350.26 288.958 350.244 288.942 350.228C288.926 350.211 288.91 350.195 288.877 350.195H300.512C302.137 346.88 302.527 343.63 301.812 340.64C301.162 337.91 299.602 335.505 297.327 333.88C294.987 332.255 292.127 331.54 289.267 331.8C286.082 332.19 282.962 333.75 280.297 336.415C277.307 339.405 275.617 343.435 275.682 347.66C275.682 351.95 277.307 355.915 280.297 358.97C283.352 361.96 287.317 363.585 291.607 363.585C295.832 363.585 299.862 361.96 302.852 358.97ZM288.617 349.87C285.822 347.01 283.417 344.085 281.922 341.615C280.362 339.08 279.842 337.26 280.492 336.61C281.077 336.025 281.922 335.96 282.897 336.35C284.392 336.935 286.147 338.56 287.642 340.705C289.202 342.915 290.112 345.255 290.177 346.945C290.242 348.375 289.657 349.35 288.617 349.87ZM134.878 423.905C134.293 424.23 133.383 424.49 132.408 423.905C131.563 423.385 130.848 422.345 130.393 420.785C129.808 418.9 129.483 416.365 129.483 413.18V400.375C131.758 400.96 132.538 401.545 132.538 401.545L132.668 401.675L135.203 397.255H129.483V385.49L117.653 391.015V397.255H114.598V399.01H114.728H117.653V419.42C117.653 425.335 121.098 428.585 125.583 428.585C129.678 428.585 133.058 426.115 135.073 424.1L134.878 423.905ZM153.085 428.065H167.06L164.98 423.58V408.5C164.98 405.315 163.68 402.325 161.275 400.18C160.04 399.075 158.61 398.23 157.05 397.645C155.36 397.06 153.605 396.8 151.72 396.735H151.525C148.99 396.735 146.455 397.19 144.245 397.97C141.97 398.815 140.02 400.05 138.72 401.545L138.59 401.61L146.975 407.785L151.59 397.06H151.655C152.825 397.32 153.02 400.765 153.085 404.145V412.4C151.655 410.97 149.77 409.995 147.82 409.54C145.805 409.15 143.725 409.28 141.905 409.995C138.46 411.425 136.51 414.74 136.51 419.16C136.51 421.37 137.03 423.255 138.005 424.815C138.915 426.18 140.28 427.22 141.84 427.87C143.075 428.39 144.44 428.65 145.805 428.65C146.52 428.65 147.235 428.585 147.95 428.39C149.965 428.065 151.785 427.155 153.085 425.855V428.065ZM153.085 425.465C152.695 425.92 151.85 425.985 151.135 425.725C150.615 425.465 149.835 424.945 149.25 423.775C148.6 422.605 148.34 421.045 148.34 419.16C148.34 417.275 148.6 415.715 149.25 414.48C149.835 413.31 150.615 412.79 151.135 412.595C151.85 412.27 152.695 412.335 153.085 412.79V425.465ZM195.534 419.94C195.534 418.185 195.079 416.625 193.974 415.13C193.012 413.782 191.732 412.625 190.386 411.407L190.334 411.36C190.237 411.263 190.139 411.181 190.042 411.1C189.944 411.019 189.847 410.938 189.749 410.84C189.706 410.797 185.731 407.4 182.818 404.91C181.363 403.667 180.172 402.65 179.869 402.39C178.634 401.35 178.114 400.05 178.504 398.815C178.829 397.905 179.674 397.19 180.584 397.125C181.494 397.06 182.924 397.255 185.069 400.05L192.804 409.865L194.949 397.905L192.024 398.685C188.124 396.8 183.314 396.54 180.519 396.865C177.529 397.125 174.929 398.1 173.044 399.53C170.899 401.22 169.729 403.495 169.729 406.16C169.729 407.785 170.249 409.28 171.224 410.71C172.199 412.075 173.564 413.31 174.929 414.415C174.962 414.448 177.352 416.48 179.742 418.512C182.13 420.543 184.517 422.573 184.549 422.605C186.109 423.905 186.239 425.53 185.849 426.57C185.459 427.545 184.614 428.195 183.639 428.325H183.314C182.209 428.39 181.039 427.805 178.894 425.14L170.769 414.805L169.144 424.295V424.36C173.889 428.325 181.039 428.585 182.924 428.585H183.639C188.124 428.325 191.374 427.285 193.324 425.53C194.819 424.165 195.534 422.345 195.534 419.94ZM217.652 423.905C217.066 424.23 216.157 424.49 215.182 423.905C214.337 423.385 213.622 422.345 213.167 420.785C212.581 418.9 212.257 416.365 212.257 413.18V400.375C214.532 400.96 215.312 401.545 215.312 401.545L215.442 401.675L217.977 397.255H212.257V385.49L200.426 391.015V397.255H197.372V399.01H197.502H200.426V419.42C200.426 425.335 203.872 428.585 208.357 428.585C212.452 428.585 215.831 426.115 217.847 424.1L217.652 423.905ZM244.803 423.97L244.608 423.775C243.958 424.425 242.138 423.905 239.603 422.345C237.003 420.785 233.948 418.25 230.958 415.26C230.925 415.26 230.909 415.244 230.893 415.228C230.876 415.211 230.86 415.195 230.828 415.195H242.463C244.088 411.88 244.478 408.63 243.763 405.64C243.113 402.91 241.553 400.505 239.278 398.88C236.938 397.255 234.078 396.54 231.218 396.8C228.033 397.19 224.913 398.75 222.248 401.415C219.258 404.405 217.568 408.435 217.633 412.66C217.633 416.95 219.258 420.915 222.248 423.97C225.303 426.96 229.268 428.585 233.558 428.585C237.783 428.585 241.813 426.96 244.803 423.97ZM230.568 414.87C227.773 412.01 225.368 409.085 223.873 406.615C222.313 404.08 221.793 402.26 222.443 401.61C223.028 401.025 223.873 400.96 224.848 401.35C226.343 401.935 228.098 403.56 229.593 405.705C231.153 407.915 232.063 410.255 232.128 411.945C232.193 413.375 231.608 414.35 230.568 414.87Z" fill="black"></path>
</svg>
